<svg xmlns="http://www.w3.org/2000/svg" style="display: none;">
  <symbol
    id="arrow-right"
    viewBox="0 0 24 24"
    fill="none"
    stroke-width="2"
    stroke-linecap="round"
    stroke-linejoin="round"
  >
    <line x1="5" y1="12" x2="19" y2="12" />
    <polyline points="12 5 19 12 12 19" />
  </symbol>

  <symbol
    id="arrow-left"
    viewBox="0 0 24 24"
    fill="none"
    stroke-width="2"
    stroke-linecap="round"
    stroke-linejoin="round"
  >
    <line x1="19" y1="12" x2="5" y2="12" />
    <polyline points="12 19 5 12 12 5" />
  </symbol>

  <symbol
    id="arrow-down"
    viewBox="0 0 24 24"
    fill="none"
    stroke-width="2"
    stroke-linecap="round"
    stroke-linejoin="round"
  >
    <line x1="19" y1="12" x2="5" y2="12" />
    <polyline points="12 19 5 12 12 5" />
  </symbol>

  <symbol
    id="cross"
    viewBox="0 0 24 24"
    fill="none"
    stroke-width="2"
    stroke-linecap="round"
    stroke-linejoin="round"
  >
    <line x1="18" y1="6" x2="6" y2="18" />
    <line x1="6" y1="6" x2="18" y2="18" />
  </symbol>

  <symbol
    id="cart"
    fill="none"
    viewBox="0 0 24 24"
    stroke-width="2"
    stroke-linecap="round"
    stroke-linejoin="round"
  >
    <circle cx="9" cy="21" r="1" />
    <circle cx="20" cy="21" r="1" />
    <path d="M1 1h4l2.68 13.39a2 2 0 0 0 2 1.61h9.72a2 2 0 0 0 2-1.61L23 6H6" />
  </symbol>

  <symbol
    id="minus"
    viewBox="0 0 24 24"
    fill="none"
    stroke-width="2"
    stroke-linecap="round"
    stroke-linejoin="round"
  >
    <line x1="5" y1="12" x2="19" y2="12" />
  </symbol>
  
  <symbol
    id="plus"
    viewBox="0 0 24 24"
    fill="none"
    stroke-width="2"
    stroke-linecap="round"
    stroke-linejoin="round"
  >
    <line x1="12" y1="5" x2="12" y2="19" />
    <line x1="5" y1="12" x2="19" y2="12" />
  </symbol>

  <symbol
    id="search"
    viewBox="-10 -10 50 50"
    fill="none"
    stroke-width="1"
    stroke-linecap="round"
    stroke-linejoin="round"
  >
<path
      d="M15.853 16.56c-1.683 1.517-3.911 2.44-6.353 2.44-5.243 0-9.5-4.257-9.5-9.5s4.257-9.5 9.5-9.5 9.5 4.257 9.5 9.5c0 2.442-.923 4.67-2.44 6.353l7.44 7.44-.707.707-7.44-7.44zm-6.353-15.56c4.691 0 8.5 3.809 8.5 8.5s-3.809 8.5-8.5 8.5-8.5-3.809-8.5-8.5 3.809-8.5 8.5-8.5z"
    />
  </symbol>

</svg>
